<?xml version="1.0" encoding="utf-8"?>
<!-- Generator: Adobe Illustrator 18.0.0, SVG Export Plug-In . SVG Version: 6.00 Build 0)  -->
<!DOCTYPE svg PUBLIC "-//W3C//DTD SVG 1.1//EN" "http://www.w3.org/Graphics/SVG/1.1/DTD/svg11.dtd">
<svg version="1.1" id="レイヤー_1" xmlns="http://www.w3.org/2000/svg" xmlns:xlink="http://www.w3.org/1999/xlink" x="0px"
	 y="0px" viewBox="0 0 450 600" enable-background="new 0 0 450 600" xml:space="preserve">
	 <g>
<path fill="#8C6239" stroke="#754C24" stroke-width="8" stroke-miterlimit="10" d="M239.6,582h-41.8c-6.6,0-12-5.4-12-12V392
	c0-6.6,5.4-12,12-12h41.8c6.6,0,12,5.4,12,12v178C251.6,576.6,246.2,582,239.6,582z"/>
<path fill="#39B54A" stroke="#009245" stroke-width="8" stroke-miterlimit="10" d="M429.9,428.3c39.4,105.5-33.4,21.6-100.9,63.1
	c-42.9,26.4-71.7-38.2-110.3-38.2c-40.7,0-55.6,62.2-117,11.6c-52-42.8-95.7,73.8-94.1-18.3c1.2-67,105.1-184.5,198.3-184.5
	S407,366.8,429.9,428.3z"/>
<path fill="#39B54A" stroke="#009245" stroke-width="8" stroke-miterlimit="10" d="M402.3,329.9c44.5,125-41,3.2-87.8,60.9
	c-33.1,40.8-62.4-36.9-96-36.9c-35.4,0-76.1,68-101.8,11.2c-26.9-59.3-65.5,51.3-81.9-17.6C20,285.2,126.3,169.6,207.4,169.6
	S381.3,271,402.3,329.9z"/>
<path fill="#39B54A" stroke="#009245" stroke-width="8" stroke-miterlimit="10" d="M361.5,220.3c34.3,95.5-20.7-0.2-56.8,43.9
	c-25.6,31.2-53.7-31-79.6-31c-27.3,0-38.4,67.9-68.6,25.6c-27.9-39.2-68.6,53.9-83.4-12C62.5,199,148.5,97.9,211.1,97.9
	S345.4,175.3,361.5,220.3z"/>
<path fill="#39B54A" stroke="#009245" stroke-width="8" stroke-miterlimit="10" d="M327.7,126c33.9,60.9-13,18.7-54.7,40.4
	c-25.1,13.1-38.9-24.5-59.8-24.5c-22.1,0-32.7,43.4-48.7,5.7c-16.8-39.4-72.8,36.5-65.8-10C107.2,80.6,184.4,13,210.8,13
	C236.3,13,300.8,77.7,327.7,126z"/>
</g>
</svg>
